<svg width="112" height="112" viewBox="0 0 112 112" fill="none" xmlns="http://www.w3.org/2000/svg">
<path d="M56.0002 9.33331C30.2269 9.33331 9.3335 30.2267 9.3335 56C9.3335 81.7733 30.2269 102.667 56.0002 102.667C81.7735 102.667 102.667 81.7733 102.667 56C102.667 43.6232 97.7502 31.7534 88.9985 23.0017C80.2468 14.25 68.3769 9.33331 56.0002 9.33331ZM56.0002 23.3333C63.7322 23.3333 70.0002 29.6013 70.0002 37.3333C70.0002 45.0653 63.7322 51.3333 56.0002 51.3333C48.2682 51.3333 42.0002 45.0653 42.0002 37.3333C42.0002 29.6013 48.2682 23.3333 56.0002 23.3333ZM82.2268 75.4133C76.0642 83.7125 66.3372 88.605 56.0002 88.605C45.6632 88.605 35.9361 83.7125 29.7735 75.4133C28.8365 74.0286 28.7119 72.2484 29.4468 70.7467L30.4268 68.6933C32.7363 63.798 37.6607 60.6725 43.0735 60.6666H68.9268C74.2635 60.6738 79.132 63.7143 81.4802 68.5067L82.5535 70.7C83.3067 72.2142 83.1818 74.0175 82.2268 75.4133Z" fill="#8C8C8C"/>
</svg>
