<svg width="196" height="196" viewBox="0 0 196 196" fill="none" xmlns="http://www.w3.org/2000/svg">
<g clip-path="url(#clip0_263_1018)">
<path d="M155.167 24.5H40.8333C31.8127 24.5 24.5 31.8127 24.5 40.8333V155.167C24.5 164.187 31.8127 171.5 40.8333 171.5H155.167C164.187 171.5 171.5 164.187 171.5 155.167V40.8333C171.5 31.8127 164.187 24.5 155.167 24.5ZM147 110.25C147 112.505 145.172 114.333 142.917 114.333H114.333V142.917C114.333 145.172 112.505 147 110.25 147H85.75C83.4948 147 81.6667 145.172 81.6667 142.917V114.333H53.0833C50.8282 114.333 49 112.505 49 110.25V85.75C49 83.4948 50.8282 81.6667 53.0833 81.6667H81.6667V53.0833C81.6667 50.8282 83.4948 49 85.75 49H110.25C112.505 49 114.333 50.8282 114.333 53.0833V81.6667H142.917C145.172 81.6667 147 83.4948 147 85.75V110.25Z" fill="#3880A0"/>
</g>
<defs>
<clipPath id="clip0_263_1018">
<rect width="196" height="196" fill="white"/>
</clipPath>
</defs>
</svg>
