<svg width="36" height="36" viewBox="0 0 36 36" fill="none" xmlns="http://www.w3.org/2000/svg">
<g clip-path="url(#clip0_275_1133)">
<path d="M31.3125 29.1904L25.3125 23.1831C25.1181 22.984 24.9017 22.8076 24.6675 22.6575L23.1675 21.6213C26.2529 17.7989 26.2815 12.3465 23.2365 8.49187C20.1914 4.63727 14.8854 3.40926 10.4596 5.53487C6.0339 7.66048 3.66965 12.5724 4.76659 17.3627C5.86353 22.1529 10.1289 25.543 15.0375 25.526C17.4196 25.5267 19.7311 24.7164 21.5925 23.2282L22.7175 24.73C22.8509 24.9234 23.0015 25.1044 23.1675 25.2707L29.1675 31.2779C29.3083 31.42 29.5 31.5 29.7 31.5C29.9 31.5 30.0917 31.42 30.2325 31.2779L31.2825 30.2266C31.5672 29.9446 31.5805 29.4884 31.3125 29.1904ZM15.0375 22.5223C10.8954 22.5223 7.5375 19.1604 7.5375 15.0133C7.5375 10.8662 10.8954 7.50426 15.0375 7.50426C19.1796 7.50426 22.5375 10.8662 22.5375 15.0133C22.5375 17.0048 21.7473 18.9148 20.3408 20.323C18.9343 21.7312 17.0266 22.5223 15.0375 22.5223Z" fill="#B3B3B3"/>
</g>
<defs>
<clipPath id="clip0_275_1133">
<rect width="36" height="36" fill="white"/>
</clipPath>
</defs>
</svg>
