<svg width="174" height="174" viewBox="0 0 174 174" fill="none" xmlns="http://www.w3.org/2000/svg">
<g clip-path="url(#clip0_263_1003)">
<path d="M87 14.5C46.9594 14.5 14.5 46.9594 14.5 87C14.5 127.041 46.9594 159.5 87 159.5C127.041 159.5 159.5 127.041 159.5 87C159.5 67.7718 151.862 49.3311 138.265 35.7348C124.669 22.1384 106.228 14.5 87 14.5ZM87 145C54.9675 145 29 119.033 29 87C29 54.9675 54.9675 29 87 29C119.033 29 145 54.9675 145 87C145 102.383 138.889 117.135 128.012 128.012C117.135 138.889 102.383 145 87 145ZM93.38 84.39V47.125C93.38 45.123 91.757 43.5 89.755 43.5H84.245C82.243 43.5 80.62 45.123 80.62 47.125V88.16C80.6556 89.1113 81.0432 90.0156 81.7075 90.6975L110.708 119.698C112.142 121.088 114.421 121.088 115.855 119.698L119.698 115.855C121.088 114.421 121.088 112.142 119.698 110.708L93.38 84.39Z" fill="#3880A0"/>
</g>
<defs>
<clipPath id="clip0_263_1003">
<rect width="174" height="174" fill="white"/>
</clipPath>
</defs>
</svg>
