<svg width="112" height="112" viewBox="0 0 112 112" fill="none" xmlns="http://www.w3.org/2000/svg">
<path d="M56.0002 9.33337C30.2269 9.33337 9.3335 30.2268 9.3335 56C9.3335 81.7733 30.2269 102.667 56.0002 102.667C81.7735 102.667 102.667 81.7733 102.667 56C102.667 43.6233 97.7502 31.7534 88.9985 23.0017C80.2468 14.25 68.3769 9.33337 56.0002 9.33337ZM56.0002 23.3334C63.7322 23.3334 70.0002 29.6014 70.0002 37.3334C70.0002 45.0654 63.7322 51.3334 56.0002 51.3334C48.2682 51.3334 42.0002 45.0654 42.0002 37.3334C42.0002 29.6014 48.2682 23.3334 56.0002 23.3334ZM82.2268 75.4134C76.0642 83.7125 66.3372 88.6051 56.0002 88.6051C45.6632 88.6051 35.9361 83.7125 29.7735 75.4134C28.8365 74.0287 28.7119 72.2485 29.4468 70.7467L30.4268 68.6934C32.7363 63.798 37.6607 60.6725 43.0735 60.6667H68.9268C74.2635 60.6738 79.132 63.7144 81.4802 68.5067L82.5535 70.7C83.3067 72.2143 83.1818 74.0175 82.2268 75.4134Z" fill="#8C8C8C"/>
</svg>
